<mxfile host="app.diagrams.net" modified="2022-06-13T11:27:59.930Z" agent="5.0 (Windows NT 10.0; Win64; x64) AppleWebKit/537.36 (KHTML, like Gecko) Chrome/101.0.0.0 Safari/537.36" etag="OUh28cBIehbkmLTUmKb-" version="19.0.3" type="github">
  <diagram id="t6rN6y4E46EZptOzziBN" name="第 1 页">
    <mxGraphModel dx="1865" dy="571" grid="1" gridSize="10" guides="1" tooltips="1" connect="1" arrows="1" fold="1" page="1" pageScale="1" pageWidth="827" pageHeight="1169" math="0" shadow="0">
      <root>
        <mxCell id="0" />
        <mxCell id="1" parent="0" />
        <mxCell id="_zuy7mStK9BVwwiW45nG-1" value="" style="group" vertex="1" connectable="0" parent="1">
          <mxGeometry x="260" y="90" width="230" height="90" as="geometry" />
        </mxCell>
        <mxCell id="_zuy7mStK9BVwwiW45nG-2" value="nacos" style="rounded=1;whiteSpace=wrap;html=1;verticalAlign=top;fontSize=14;strokeWidth=2;fillColor=#d0cee2;strokeColor=#56517e;" vertex="1" parent="_zuy7mStK9BVwwiW45nG-1">
          <mxGeometry width="230" height="90" as="geometry" />
        </mxCell>
        <mxCell id="_zuy7mStK9BVwwiW45nG-3" value="服务列表" style="rounded=0;whiteSpace=wrap;html=1;fontSize=14;strokeWidth=2;fillColor=#fff2cc;strokeColor=#d6b656;" vertex="1" parent="_zuy7mStK9BVwwiW45nG-1">
          <mxGeometry x="10" y="40" width="60" height="40" as="geometry" />
        </mxCell>
        <mxCell id="_zuy7mStK9BVwwiW45nG-4" value="配置中心" style="rounded=0;whiteSpace=wrap;html=1;fontSize=14;strokeWidth=2;fillColor=#d5e8d4;strokeColor=#82b366;" vertex="1" parent="_zuy7mStK9BVwwiW45nG-1">
          <mxGeometry x="160" y="40" width="60" height="40" as="geometry" />
        </mxCell>
        <mxCell id="_zuy7mStK9BVwwiW45nG-5" value="注册中心" style="text;html=1;strokeColor=none;fillColor=none;align=center;verticalAlign=middle;whiteSpace=wrap;rounded=0;fontSize=14;" vertex="1" parent="_zuy7mStK9BVwwiW45nG-1">
          <mxGeometry x="85" y="40" width="60" height="30" as="geometry" />
        </mxCell>
        <mxCell id="_zuy7mStK9BVwwiW45nG-6" value="服务消费者" style="rounded=1;whiteSpace=wrap;html=1;strokeWidth=2;fontSize=14;fillColor=#dae8fc;strokeColor=#6c8ebf;" vertex="1" parent="1">
          <mxGeometry x="-20" y="270" width="120" height="60" as="geometry" />
        </mxCell>
        <mxCell id="_zuy7mStK9BVwwiW45nG-7" value="服务提供者" style="rounded=1;whiteSpace=wrap;html=1;strokeWidth=2;fontSize=14;fillColor=#dae8fc;strokeColor=#6c8ebf;" vertex="1" parent="1">
          <mxGeometry x="680" y="270" width="120" height="60" as="geometry" />
        </mxCell>
        <mxCell id="_zuy7mStK9BVwwiW45nG-11" value="" style="group" vertex="1" connectable="0" parent="1">
          <mxGeometry x="570" y="120" width="80" height="30" as="geometry" />
        </mxCell>
        <mxCell id="_zuy7mStK9BVwwiW45nG-9" value="注册 &amp;amp; 配置拉取" style="text;html=1;fillColor=#bac8d3;align=center;verticalAlign=middle;whiteSpace=wrap;rounded=0;fontSize=14;strokeColor=#23445d;" vertex="1" parent="_zuy7mStK9BVwwiW45nG-11">
          <mxGeometry width="80" height="30" as="geometry" />
        </mxCell>
        <mxCell id="_zuy7mStK9BVwwiW45nG-10" value="" style="edgeStyle=orthogonalEdgeStyle;rounded=0;orthogonalLoop=1;jettySize=auto;html=1;entryX=1;entryY=0.5;entryDx=0;entryDy=0;fontSize=14;exitX=0.5;exitY=0;exitDx=0;exitDy=0;strokeWidth=2;endArrow=none;" edge="1" parent="_zuy7mStK9BVwwiW45nG-11" source="_zuy7mStK9BVwwiW45nG-7" target="_zuy7mStK9BVwwiW45nG-9">
          <mxGeometry relative="1" as="geometry">
            <mxPoint x="130" y="160" as="sourcePoint" />
            <mxPoint x="-80" y="15" as="targetPoint" />
          </mxGeometry>
        </mxCell>
        <mxCell id="_zuy7mStK9BVwwiW45nG-8" style="edgeStyle=orthogonalEdgeStyle;rounded=0;orthogonalLoop=1;jettySize=auto;html=1;entryX=1;entryY=0.5;entryDx=0;entryDy=0;fontSize=14;exitX=0;exitY=0.5;exitDx=0;exitDy=0;strokeWidth=2;startArrow=none;" edge="1" parent="1" source="_zuy7mStK9BVwwiW45nG-9" target="_zuy7mStK9BVwwiW45nG-2">
          <mxGeometry relative="1" as="geometry" />
        </mxCell>
        <mxCell id="_zuy7mStK9BVwwiW45nG-15" style="edgeStyle=orthogonalEdgeStyle;rounded=0;orthogonalLoop=1;jettySize=auto;html=1;fontSize=14;strokeWidth=2;startArrow=none;exitX=0;exitY=0.5;exitDx=0;exitDy=0;entryX=0.5;entryY=0;entryDx=0;entryDy=0;" edge="1" parent="1" source="_zuy7mStK9BVwwiW45nG-16" target="_zuy7mStK9BVwwiW45nG-18">
          <mxGeometry relative="1" as="geometry">
            <mxPoint x="40" y="230" as="targetPoint" />
          </mxGeometry>
        </mxCell>
        <mxCell id="_zuy7mStK9BVwwiW45nG-16" value="服务列表" style="text;html=1;strokeColor=#23445d;fillColor=#bac8d3;align=center;verticalAlign=middle;whiteSpace=wrap;rounded=0;fontSize=14;" vertex="1" parent="1">
          <mxGeometry x="90" y="120" width="60" height="30" as="geometry" />
        </mxCell>
        <mxCell id="_zuy7mStK9BVwwiW45nG-17" value="" style="edgeStyle=orthogonalEdgeStyle;rounded=0;orthogonalLoop=1;jettySize=auto;html=1;fontSize=14;strokeWidth=2;endArrow=none;" edge="1" parent="1" source="_zuy7mStK9BVwwiW45nG-2" target="_zuy7mStK9BVwwiW45nG-16">
          <mxGeometry relative="1" as="geometry">
            <mxPoint x="260" y="135" as="sourcePoint" />
            <mxPoint x="40" y="270" as="targetPoint" />
          </mxGeometry>
        </mxCell>
        <mxCell id="_zuy7mStK9BVwwiW45nG-18" value="Ribbon" style="rounded=1;whiteSpace=wrap;html=1;fontSize=14;strokeWidth=2;fillColor=#b1ddf0;strokeColor=#10739e;" vertex="1" parent="1">
          <mxGeometry x="5" y="250" width="70" height="30" as="geometry" />
        </mxCell>
        <mxCell id="_zuy7mStK9BVwwiW45nG-31" style="edgeStyle=orthogonalEdgeStyle;rounded=0;orthogonalLoop=1;jettySize=auto;html=1;entryX=0;entryY=0;entryDx=25;entryDy=0;entryPerimeter=0;fontSize=16;strokeWidth=2;" edge="1" parent="1" source="_zuy7mStK9BVwwiW45nG-20" target="_zuy7mStK9BVwwiW45nG-30">
          <mxGeometry relative="1" as="geometry" />
        </mxCell>
        <mxCell id="_zuy7mStK9BVwwiW45nG-20" value="Feign" style="rounded=1;whiteSpace=wrap;html=1;fontSize=14;strokeWidth=2;fillColor=#b1ddf0;strokeColor=#10739e;" vertex="1" parent="1">
          <mxGeometry x="85" y="277.5" width="70" height="45" as="geometry" />
        </mxCell>
        <mxCell id="_zuy7mStK9BVwwiW45nG-22" value="tomcat" style="whiteSpace=wrap;html=1;aspect=fixed;fontSize=14;strokeWidth=2;fillColor=#d0cee2;strokeColor=#56517e;" vertex="1" parent="1">
          <mxGeometry x="480" y="260" width="80" height="80" as="geometry" />
        </mxCell>
        <mxCell id="_zuy7mStK9BVwwiW45nG-23" value="tcp" style="rounded=0;whiteSpace=wrap;html=1;fontSize=16;strokeWidth=2;" vertex="1" parent="1">
          <mxGeometry x="220" y="274" width="70" height="52" as="geometry" />
        </mxCell>
        <mxCell id="_zuy7mStK9BVwwiW45nG-24" value="tcp" style="rounded=0;whiteSpace=wrap;html=1;fontSize=16;strokeWidth=2;" vertex="1" parent="1">
          <mxGeometry x="340" y="274" width="70" height="52" as="geometry" />
        </mxCell>
        <mxCell id="_zuy7mStK9BVwwiW45nG-25" value="" style="endArrow=classic;startArrow=classic;html=1;rounded=0;fontSize=16;strokeWidth=2;entryX=0;entryY=0.5;entryDx=0;entryDy=0;exitX=1;exitY=0.5;exitDx=0;exitDy=0;" edge="1" parent="1" source="_zuy7mStK9BVwwiW45nG-20" target="_zuy7mStK9BVwwiW45nG-23">
          <mxGeometry width="50" height="50" relative="1" as="geometry">
            <mxPoint x="155" y="360" as="sourcePoint" />
            <mxPoint x="205" y="310" as="targetPoint" />
          </mxGeometry>
        </mxCell>
        <mxCell id="_zuy7mStK9BVwwiW45nG-26" value="" style="endArrow=classic;startArrow=classic;html=1;rounded=0;fontSize=16;strokeWidth=2;entryX=0;entryY=0.5;entryDx=0;entryDy=0;exitX=1;exitY=0.5;exitDx=0;exitDy=0;" edge="1" parent="1" source="_zuy7mStK9BVwwiW45nG-24">
          <mxGeometry width="50" height="50" relative="1" as="geometry">
            <mxPoint x="415" y="299.5" as="sourcePoint" />
            <mxPoint x="480" y="299.5" as="targetPoint" />
          </mxGeometry>
        </mxCell>
        <mxCell id="_zuy7mStK9BVwwiW45nG-27" value="" style="endArrow=classic;startArrow=classic;html=1;rounded=0;fontSize=16;strokeWidth=2;exitX=1;exitY=0.5;exitDx=0;exitDy=0;" edge="1" parent="1">
          <mxGeometry width="50" height="50" relative="1" as="geometry">
            <mxPoint x="290" y="299.5" as="sourcePoint" />
            <mxPoint x="340" y="300" as="targetPoint" />
          </mxGeometry>
        </mxCell>
        <mxCell id="_zuy7mStK9BVwwiW45nG-28" value="http接口" style="rounded=1;whiteSpace=wrap;html=1;fontSize=14;strokeWidth=2;fillColor=#b1ddf0;strokeColor=#10739e;" vertex="1" parent="1">
          <mxGeometry x="630" y="277.5" width="70" height="45" as="geometry" />
        </mxCell>
        <mxCell id="_zuy7mStK9BVwwiW45nG-29" value="" style="endArrow=classic;startArrow=classic;html=1;rounded=0;fontSize=16;strokeWidth=2;entryX=0;entryY=0.5;entryDx=0;entryDy=0;exitX=1;exitY=0.5;exitDx=0;exitDy=0;" edge="1" parent="1">
          <mxGeometry width="50" height="50" relative="1" as="geometry">
            <mxPoint x="560" y="300" as="sourcePoint" />
            <mxPoint x="630" y="299.5" as="targetPoint" />
          </mxGeometry>
        </mxCell>
        <mxCell id="_zuy7mStK9BVwwiW45nG-30" value="伪装成http请求" style="shape=note;whiteSpace=wrap;html=1;backgroundOutline=1;darkOpacity=0.05;fontSize=16;strokeWidth=2;fillColor=#ffcc99;strokeColor=#36393d;" vertex="1" parent="1">
          <mxGeometry x="95" y="390" width="115" height="70" as="geometry" />
        </mxCell>
      </root>
    </mxGraphModel>
  </diagram>
</mxfile>
